<svg xmlns="http://www.w3.org/2000/svg" width="280" height="280" version="1.0"
    viewBox="0 0 210 210">
    <defs>
        <clipPath id="a">
            <path d="M222.3 0H331v155H222.3Zm0 0" />
        </clipPath>
        <clipPath id="b">
            <path d="M424 44h103v164.5H424Zm0 0" />
        </clipPath>
        <clipPath id="c">
            <path d="M26 4h186v206H26Zm0 0" />
        </clipPath>
        <clipPath id="d">
            <path
                d="M7.5 155.39V55.079c0-3.582.348-7.133 1.043-10.644.7-3.516 1.73-6.926 3.098-10.239a54.58 54.58 0 0 1 11.8-17.703A54.485 54.485 0 0 1 41.105 4.664 54.226 54.226 0 0 1 61.938.512h100.074a54.226 54.226 0 0 1 20.832 4.152 54.115 54.115 0 0 1 9.414 5.043 54.454 54.454 0 0 1 8.246 6.785 54.371 54.371 0 0 1 6.773 8.27 54.91 54.91 0 0 1 5.032 9.433 54.759 54.759 0 0 1 3.097 10.239 54.694 54.694 0 0 1 1.043 10.644v100.313a54.632 54.632 0 0 1-9.172 30.316 54.34 54.34 0 0 1-6.773 8.266 54.48 54.48 0 0 1-8.246 6.789 54.38 54.38 0 0 1-30.246 9.195H61.937a54.226 54.226 0 0 1-20.832-4.152 54.38 54.38 0 0 1-17.664-11.832 54.549 54.549 0 0 1-14.898-27.938A54.723 54.723 0 0 1 7.5 155.391Zm0 0" />
        </clipPath>
        <clipPath id="e">
            <path d="M88 177h37v33H88Zm0 0" />
        </clipPath>
        <clipPath id="f">
            <path
                d="M7.5 155.39V55.079c0-3.582.348-7.133 1.043-10.644.7-3.516 1.73-6.926 3.098-10.239a54.58 54.58 0 0 1 11.8-17.703A54.485 54.485 0 0 1 41.105 4.664 54.226 54.226 0 0 1 61.938.512h100.074a54.226 54.226 0 0 1 20.832 4.152 54.115 54.115 0 0 1 9.414 5.043 54.454 54.454 0 0 1 8.246 6.785 54.371 54.371 0 0 1 6.773 8.27 54.91 54.91 0 0 1 5.032 9.433 54.759 54.759 0 0 1 3.097 10.239 54.694 54.694 0 0 1 1.043 10.644v100.313a54.632 54.632 0 0 1-9.172 30.316 54.34 54.34 0 0 1-6.773 8.266 54.48 54.48 0 0 1-8.246 6.789 54.38 54.38 0 0 1-30.246 9.195H61.937a54.226 54.226 0 0 1-20.832-4.152 54.38 54.38 0 0 1-17.664-11.832 54.549 54.549 0 0 1-14.898-27.938A54.723 54.723 0 0 1 7.5 155.391Zm0 0" />
        </clipPath>
        <clipPath id="g">
            <path
                d="M88.293 195.922c.246 20.176 10.75 73.48 58.879 73.48 36.008 0 48.754-38.054 48.754-38.054s-15.13-29.153-7.637-76.325c3.844-24.195 11.828-47.52 20.746-71.058C234.211 21.207 80.371-44.801 38.207 60.102c-37.219 92.593 19.75 139.132 50.082 135.82Zm0 0" />
        </clipPath>
        <clipPath id="h">
            <path d="M179 76h31v134h-31Zm0 0" />
        </clipPath>
        <clipPath id="i">
            <path
                d="M7.5 155.39V55.079c0-3.582.348-7.133 1.043-10.644.7-3.516 1.73-6.926 3.098-10.239a54.58 54.58 0 0 1 11.8-17.703A54.485 54.485 0 0 1 41.105 4.664 54.226 54.226 0 0 1 61.938.512h100.074a54.226 54.226 0 0 1 20.832 4.152 54.115 54.115 0 0 1 9.414 5.043 54.454 54.454 0 0 1 8.246 6.785 54.371 54.371 0 0 1 6.773 8.27 54.91 54.91 0 0 1 5.032 9.433 54.759 54.759 0 0 1 3.097 10.239 54.694 54.694 0 0 1 1.043 10.644v100.313a54.632 54.632 0 0 1-9.172 30.316 54.34 54.34 0 0 1-6.773 8.266 54.48 54.48 0 0 1-8.246 6.789 54.38 54.38 0 0 1-30.246 9.195H61.937a54.226 54.226 0 0 1-20.832-4.152 54.38 54.38 0 0 1-17.664-11.832 54.549 54.549 0 0 1-14.898-27.938A54.723 54.723 0 0 1 7.5 155.391Zm0 0" />
        </clipPath>
        <clipPath id="j">
            <path
                d="M88.293 195.922c.246 20.176 10.75 73.48 58.879 73.48 36.008 0 48.754-38.054 48.754-38.054s-15.13-29.153-7.637-76.325c3.844-24.195 11.828-47.52 20.746-71.058C234.211 21.207 80.371-44.801 38.207 60.102c-37.219 92.593 19.75 139.132 50.082 135.82Zm0 0" />
        </clipPath>
        <clipPath id="k">
            <path d="M47 15h99v26H47Zm0 0" />
        </clipPath>
        <clipPath id="l">
            <path
                d="M7.5 155.39V55.079c0-3.582.348-7.133 1.043-10.644.7-3.516 1.73-6.926 3.098-10.239a54.58 54.58 0 0 1 11.8-17.703A54.485 54.485 0 0 1 41.105 4.664 54.226 54.226 0 0 1 61.938.512h100.074a54.226 54.226 0 0 1 20.832 4.152 54.115 54.115 0 0 1 9.414 5.043 54.454 54.454 0 0 1 8.246 6.785 54.371 54.371 0 0 1 6.773 8.27 54.91 54.91 0 0 1 5.032 9.433 54.759 54.759 0 0 1 3.097 10.239 54.694 54.694 0 0 1 1.043 10.644v100.313a54.632 54.632 0 0 1-9.172 30.316 54.34 54.34 0 0 1-6.773 8.266 54.48 54.48 0 0 1-8.246 6.789 54.38 54.38 0 0 1-30.246 9.195H61.937a54.226 54.226 0 0 1-20.832-4.152 54.38 54.38 0 0 1-17.664-11.832 54.549 54.549 0 0 1-14.898-27.938A54.723 54.723 0 0 1 7.5 155.391Zm0 0" />
        </clipPath>
        <clipPath id="m">
            <path
                d="M88.293 195.922c.246 20.176 10.75 73.48 58.879 73.48 36.008 0 48.754-38.054 48.754-38.054s-15.13-29.153-7.637-76.325c3.844-24.195 11.828-47.52 20.746-71.058C234.211 21.207 80.371-44.801 38.207 60.102c-37.219 92.593 19.75 139.132 50.082 135.82Zm0 0" />
        </clipPath>
        <clipPath id="n">
            <path d="M125 39h36v28h-36Zm0 0" />
        </clipPath>
        <clipPath id="o">
            <path
                d="M7.5 155.39V55.079c0-3.582.348-7.133 1.043-10.644.7-3.516 1.73-6.926 3.098-10.239a54.58 54.58 0 0 1 11.8-17.703A54.485 54.485 0 0 1 41.105 4.664 54.226 54.226 0 0 1 61.938.512h100.074a54.226 54.226 0 0 1 20.832 4.152 54.115 54.115 0 0 1 9.414 5.043 54.454 54.454 0 0 1 8.246 6.785 54.371 54.371 0 0 1 6.773 8.27 54.91 54.91 0 0 1 5.032 9.433 54.759 54.759 0 0 1 3.097 10.239 54.694 54.694 0 0 1 1.043 10.644v100.313a54.632 54.632 0 0 1-9.172 30.316 54.34 54.34 0 0 1-6.773 8.266 54.48 54.48 0 0 1-8.246 6.789 54.38 54.38 0 0 1-30.246 9.195H61.937a54.226 54.226 0 0 1-20.832-4.152 54.38 54.38 0 0 1-17.664-11.832 54.549 54.549 0 0 1-14.898-27.938A54.723 54.723 0 0 1 7.5 155.391Zm0 0" />
        </clipPath>
        <clipPath id="p">
            <path d="M49 43h37v153H49Zm0 0" />
        </clipPath>
        <clipPath id="q">
            <path
                d="M7.5 155.39V55.079c0-3.582.348-7.133 1.043-10.644.7-3.516 1.73-6.926 3.098-10.239a54.58 54.58 0 0 1 11.8-17.703A54.485 54.485 0 0 1 41.105 4.664 54.226 54.226 0 0 1 61.938.512h100.074a54.226 54.226 0 0 1 20.832 4.152 54.115 54.115 0 0 1 9.414 5.043 54.454 54.454 0 0 1 8.246 6.785 54.371 54.371 0 0 1 6.773 8.27 54.91 54.91 0 0 1 5.032 9.433 54.759 54.759 0 0 1 3.097 10.239 54.694 54.694 0 0 1 1.043 10.644v100.313a54.632 54.632 0 0 1-9.172 30.316 54.34 54.34 0 0 1-6.773 8.266 54.48 54.48 0 0 1-8.246 6.789 54.38 54.38 0 0 1-30.246 9.195H61.937a54.226 54.226 0 0 1-20.832-4.152 54.38 54.38 0 0 1-17.664-11.832 54.549 54.549 0 0 1-14.898-27.938A54.723 54.723 0 0 1 7.5 155.391Zm0 0" />
        </clipPath>
        <clipPath id="r">
            <path d="M31 131h92v25H31Zm0 0" />
        </clipPath>
        <clipPath id="s">
            <path
                d="M7.5 155.39V55.079c0-3.582.348-7.133 1.043-10.644.7-3.516 1.73-6.926 3.098-10.239a54.58 54.58 0 0 1 11.8-17.703A54.485 54.485 0 0 1 41.105 4.664 54.226 54.226 0 0 1 61.938.512h100.074a54.226 54.226 0 0 1 20.832 4.152 54.115 54.115 0 0 1 9.414 5.043 54.454 54.454 0 0 1 8.246 6.785 54.371 54.371 0 0 1 6.773 8.27 54.91 54.91 0 0 1 5.032 9.433 54.759 54.759 0 0 1 3.097 10.239 54.694 54.694 0 0 1 1.043 10.644v100.313a54.632 54.632 0 0 1-9.172 30.316 54.34 54.34 0 0 1-6.773 8.266 54.48 54.48 0 0 1-8.246 6.789 54.38 54.38 0 0 1-30.246 9.195H61.937a54.226 54.226 0 0 1-20.832-4.152 54.38 54.38 0 0 1-17.664-11.832 54.549 54.549 0 0 1-14.898-27.938A54.723 54.723 0 0 1 7.5 155.391Zm0 0" />
        </clipPath>
        <clipPath id="t">
            <path d="M105 118h32v30h-32Zm0 0" />
        </clipPath>
        <clipPath id="u">
            <path
                d="M7.5 155.39V55.079c0-3.582.348-7.133 1.043-10.644.7-3.516 1.73-6.926 3.098-10.239a54.58 54.58 0 0 1 11.8-17.703A54.485 54.485 0 0 1 41.105 4.664 54.226 54.226 0 0 1 61.938.512h100.074a54.226 54.226 0 0 1 20.832 4.152 54.115 54.115 0 0 1 9.414 5.043 54.454 54.454 0 0 1 8.246 6.785 54.371 54.371 0 0 1 6.773 8.27 54.91 54.91 0 0 1 5.032 9.433 54.759 54.759 0 0 1 3.097 10.239 54.694 54.694 0 0 1 1.043 10.644v100.313a54.632 54.632 0 0 1-9.172 30.316 54.34 54.34 0 0 1-6.773 8.266 54.48 54.48 0 0 1-8.246 6.789 54.38 54.38 0 0 1-30.246 9.195H61.937a54.226 54.226 0 0 1-20.832-4.152 54.38 54.38 0 0 1-17.664-11.832 54.549 54.549 0 0 1-14.898-27.938A54.723 54.723 0 0 1 7.5 155.391Zm0 0" />
        </clipPath>
        <clipPath id="v">
            <path d="M93 61h55v35H93Zm0 0" />
        </clipPath>
        <clipPath id="w">
            <path
                d="M7.5 155.39V55.079c0-3.582.348-7.133 1.043-10.644.7-3.516 1.73-6.926 3.098-10.239a54.58 54.58 0 0 1 11.8-17.703A54.485 54.485 0 0 1 41.105 4.664 54.226 54.226 0 0 1 61.938.512h100.074a54.226 54.226 0 0 1 20.832 4.152 54.115 54.115 0 0 1 9.414 5.043 54.454 54.454 0 0 1 8.246 6.785 54.371 54.371 0 0 1 6.773 8.27 54.91 54.91 0 0 1 5.032 9.433 54.759 54.759 0 0 1 3.097 10.239 54.694 54.694 0 0 1 1.043 10.644v100.313a54.632 54.632 0 0 1-9.172 30.316 54.34 54.34 0 0 1-6.773 8.266 54.48 54.48 0 0 1-8.246 6.789 54.38 54.38 0 0 1-30.246 9.195H61.937a54.226 54.226 0 0 1-20.832-4.152 54.38 54.38 0 0 1-17.664-11.832 54.549 54.549 0 0 1-14.898-27.938A54.723 54.723 0 0 1 7.5 155.391Zm0 0" />
        </clipPath>
        <clipPath id="x">
            <path d="M31 57h31v28H31Zm0 0" />
        </clipPath>
        <clipPath id="y">
            <path
                d="M7.5 155.39V55.079c0-3.582.348-7.133 1.043-10.644.7-3.516 1.73-6.926 3.098-10.239a54.58 54.58 0 0 1 11.8-17.703A54.485 54.485 0 0 1 41.105 4.664 54.226 54.226 0 0 1 61.938.512h100.074a54.226 54.226 0 0 1 20.832 4.152 54.115 54.115 0 0 1 9.414 5.043 54.454 54.454 0 0 1 8.246 6.785 54.371 54.371 0 0 1 6.773 8.27 54.91 54.91 0 0 1 5.032 9.433 54.759 54.759 0 0 1 3.097 10.239 54.694 54.694 0 0 1 1.043 10.644v100.313a54.632 54.632 0 0 1-9.172 30.316 54.34 54.34 0 0 1-6.773 8.266 54.48 54.48 0 0 1-8.246 6.789 54.38 54.38 0 0 1-30.246 9.195H61.937a54.226 54.226 0 0 1-20.832-4.152 54.38 54.38 0 0 1-17.664-11.832 54.549 54.549 0 0 1-14.898-27.938A54.723 54.723 0 0 1 7.5 155.391Zm0 0" />
        </clipPath>
        <clipPath id="z">
            <path d="M40 63h21.434v21.418H40Zm0 0" />
        </clipPath>
        <clipPath id="A">
            <path
                d="M7.5 155.39V55.079c0-3.582.348-7.133 1.043-10.644.7-3.516 1.73-6.926 3.098-10.239a54.58 54.58 0 0 1 11.8-17.703A54.485 54.485 0 0 1 41.105 4.664 54.226 54.226 0 0 1 61.938.512h100.074a54.226 54.226 0 0 1 20.832 4.152 54.115 54.115 0 0 1 9.414 5.043 54.454 54.454 0 0 1 8.246 6.785 54.371 54.371 0 0 1 6.773 8.27 54.91 54.91 0 0 1 5.032 9.433 54.759 54.759 0 0 1 3.097 10.239 54.694 54.694 0 0 1 1.043 10.644v100.313a54.632 54.632 0 0 1-9.172 30.316 54.34 54.34 0 0 1-6.773 8.266 54.48 54.48 0 0 1-8.246 6.789 54.38 54.38 0 0 1-30.246 9.195H61.937a54.226 54.226 0 0 1-20.832-4.152 54.38 54.38 0 0 1-17.664-11.832 54.549 54.549 0 0 1-14.898-27.938A54.723 54.723 0 0 1 7.5 155.391Zm0 0" />
        </clipPath>
        <clipPath id="B">
            <path
                d="M60.266 84.176 31.09 80.64c1.672-5.094 3.46-13.098 7.504-21.485 30.386-11.093 21.672 25.02 21.672 25.02Zm0 0" />
        </clipPath>
        <clipPath id="C">
            <path d="M114 68h34v28h-34Zm0 0" />
        </clipPath>
        <clipPath id="D">
            <path
                d="M7.5 155.39V55.079c0-3.582.348-7.133 1.043-10.644.7-3.516 1.73-6.926 3.098-10.239a54.58 54.58 0 0 1 11.8-17.703A54.485 54.485 0 0 1 41.105 4.664 54.226 54.226 0 0 1 61.938.512h100.074a54.226 54.226 0 0 1 20.832 4.152 54.115 54.115 0 0 1 9.414 5.043 54.454 54.454 0 0 1 8.246 6.785 54.371 54.371 0 0 1 6.773 8.27 54.91 54.91 0 0 1 5.032 9.433 54.759 54.759 0 0 1 3.097 10.239 54.694 54.694 0 0 1 1.043 10.644v100.313a54.632 54.632 0 0 1-9.172 30.316 54.34 54.34 0 0 1-6.773 8.266 54.48 54.48 0 0 1-8.246 6.789 54.38 54.38 0 0 1-30.246 9.195H61.937a54.226 54.226 0 0 1-20.832-4.152 54.38 54.38 0 0 1-17.664-11.832 54.549 54.549 0 0 1-14.898-27.938A54.723 54.723 0 0 1 7.5 155.391Zm0 0" />
        </clipPath>
        <clipPath id="E">
            <path d="M64 99h13v12H64Zm0 0" />
        </clipPath>
        <clipPath id="F">
            <path
                d="M7.5 155.39V55.079c0-3.582.348-7.133 1.043-10.644.7-3.516 1.73-6.926 3.098-10.239a54.58 54.58 0 0 1 11.8-17.703A54.485 54.485 0 0 1 41.105 4.664 54.226 54.226 0 0 1 61.938.512h100.074a54.226 54.226 0 0 1 20.832 4.152 54.115 54.115 0 0 1 9.414 5.043 54.454 54.454 0 0 1 8.246 6.785 54.371 54.371 0 0 1 6.773 8.27 54.91 54.91 0 0 1 5.032 9.433 54.759 54.759 0 0 1 3.097 10.239 54.694 54.694 0 0 1 1.043 10.644v100.313a54.632 54.632 0 0 1-9.172 30.316 54.34 54.34 0 0 1-6.773 8.266 54.48 54.48 0 0 1-8.246 6.789 54.38 54.38 0 0 1-30.246 9.195H61.937a54.226 54.226 0 0 1-20.832-4.152 54.38 54.38 0 0 1-17.664-11.832 54.549 54.549 0 0 1-14.898-27.938A54.723 54.723 0 0 1 7.5 155.391Zm0 0" />
        </clipPath>
        <clipPath id="G">
            <path d="M34 95h12v9H34Zm0 0" />
        </clipPath>
        <clipPath id="H">
            <path
                d="M7.5 155.39V55.079c0-3.582.348-7.133 1.043-10.644.7-3.516 1.73-6.926 3.098-10.239a54.58 54.58 0 0 1 11.8-17.703A54.485 54.485 0 0 1 41.105 4.664 54.226 54.226 0 0 1 61.938.512h100.074a54.226 54.226 0 0 1 20.832 4.152 54.115 54.115 0 0 1 9.414 5.043 54.454 54.454 0 0 1 8.246 6.785 54.371 54.371 0 0 1 6.773 8.27 54.91 54.91 0 0 1 5.032 9.433 54.759 54.759 0 0 1 3.097 10.239 54.694 54.694 0 0 1 1.043 10.644v100.313a54.632 54.632 0 0 1-9.172 30.316 54.34 54.34 0 0 1-6.773 8.266 54.48 54.48 0 0 1-8.246 6.789 54.38 54.38 0 0 1-30.246 9.195H61.937a54.226 54.226 0 0 1-20.832-4.152 54.38 54.38 0 0 1-17.664-11.832 54.549 54.549 0 0 1-14.898-27.938A54.723 54.723 0 0 1 7.5 155.391Zm0 0" />
        </clipPath>
        <clipPath id="I">
            <path d="M50 0h167v87H50Zm0 0" />
        </clipPath>
        <clipPath id="J">
            <path
                d="M7.5 155.39V55.079c0-3.582.348-7.133 1.043-10.644.7-3.516 1.73-6.926 3.098-10.239a54.58 54.58 0 0 1 11.8-17.703A54.485 54.485 0 0 1 41.105 4.664 54.226 54.226 0 0 1 61.938.512h100.074a54.226 54.226 0 0 1 20.832 4.152 54.115 54.115 0 0 1 9.414 5.043 54.454 54.454 0 0 1 8.246 6.785 54.371 54.371 0 0 1 6.773 8.27 54.91 54.91 0 0 1 5.032 9.433 54.759 54.759 0 0 1 3.097 10.239 54.694 54.694 0 0 1 1.043 10.644v100.313a54.632 54.632 0 0 1-9.172 30.316 54.34 54.34 0 0 1-6.773 8.266 54.48 54.48 0 0 1-8.246 6.789 54.38 54.38 0 0 1-30.246 9.195H61.937a54.226 54.226 0 0 1-20.832-4.152 54.38 54.38 0 0 1-17.664-11.832 54.549 54.549 0 0 1-14.898-27.938A54.723 54.723 0 0 1 7.5 155.391Zm0 0" />
        </clipPath>
        <clipPath id="K">
            <path d="M182 0h35v86.945h-35Zm0 0" />
        </clipPath>
        <clipPath id="L">
            <path
                d="M7.5 155.39V55.079c0-3.582.348-7.133 1.043-10.644.7-3.516 1.73-6.926 3.098-10.239a54.58 54.58 0 0 1 11.8-17.703A54.485 54.485 0 0 1 41.105 4.664 54.226 54.226 0 0 1 61.938.512h100.074a54.226 54.226 0 0 1 20.832 4.152 54.115 54.115 0 0 1 9.414 5.043 54.454 54.454 0 0 1 8.246 6.785 54.371 54.371 0 0 1 6.773 8.27 54.91 54.91 0 0 1 5.032 9.433 54.759 54.759 0 0 1 3.097 10.239 54.694 54.694 0 0 1 1.043 10.644v100.313a54.632 54.632 0 0 1-9.172 30.316 54.34 54.34 0 0 1-6.773 8.266 54.48 54.48 0 0 1-8.246 6.789 54.38 54.38 0 0 1-30.246 9.195H61.937a54.226 54.226 0 0 1-20.832-4.152 54.38 54.38 0 0 1-17.664-11.832 54.549 54.549 0 0 1-14.898-27.938A54.723 54.723 0 0 1 7.5 155.391Zm0 0" />
        </clipPath>
        <clipPath id="M">
            <path
                d="M208.742 86.43c7.32-10.614 33.988-70.805-20.898-105.528C101.594-73.66 46.309 24.195 50.883 36.777c63.34-61.148 142.746 30.817 157.762 49.953.062-.316.12-.636.097-.296Zm0 0" />
        </clipPath>
        <clipPath id="N">
            <path d="M7 0h151v50H7Zm0 0" />
        </clipPath>
        <clipPath id="O">
            <path
                d="M7.5 155.39V55.079c0-3.582.348-7.133 1.043-10.644.7-3.516 1.73-6.926 3.098-10.239a54.58 54.58 0 0 1 11.8-17.703A54.485 54.485 0 0 1 41.105 4.664 54.226 54.226 0 0 1 61.938.512h100.074a54.226 54.226 0 0 1 20.832 4.152 54.115 54.115 0 0 1 9.414 5.043 54.454 54.454 0 0 1 8.246 6.785 54.371 54.371 0 0 1 6.773 8.27 54.91 54.91 0 0 1 5.032 9.433 54.759 54.759 0 0 1 3.097 10.239 54.694 54.694 0 0 1 1.043 10.644v100.313a54.632 54.632 0 0 1-9.172 30.316 54.34 54.34 0 0 1-6.773 8.266 54.48 54.48 0 0 1-8.246 6.789 54.38 54.38 0 0 1-30.246 9.195H61.937a54.226 54.226 0 0 1-20.832-4.152 54.38 54.38 0 0 1-17.664-11.832 54.549 54.549 0 0 1-14.898-27.938A54.723 54.723 0 0 1 7.5 155.391Zm0 0" />
        </clipPath>
        <clipPath id="P">
            <path d="M7 0h140v32H7Zm0 0" />
        </clipPath>
        <clipPath id="Q">
            <path
                d="M7.5 155.39V55.079c0-3.582.348-7.133 1.043-10.644.7-3.516 1.73-6.926 3.098-10.239a54.58 54.58 0 0 1 11.8-17.703A54.485 54.485 0 0 1 41.105 4.664 54.226 54.226 0 0 1 61.938.512h100.074a54.226 54.226 0 0 1 20.832 4.152 54.115 54.115 0 0 1 9.414 5.043 54.454 54.454 0 0 1 8.246 6.785 54.371 54.371 0 0 1 6.773 8.27 54.91 54.91 0 0 1 5.032 9.433 54.759 54.759 0 0 1 3.097 10.239 54.694 54.694 0 0 1 1.043 10.644v100.313a54.632 54.632 0 0 1-9.172 30.316 54.34 54.34 0 0 1-6.773 8.266 54.48 54.48 0 0 1-8.246 6.789 54.38 54.38 0 0 1-30.246 9.195H61.937a54.226 54.226 0 0 1-20.832-4.152 54.38 54.38 0 0 1-17.664-11.832 54.549 54.549 0 0 1-14.898-27.938A54.723 54.723 0 0 1 7.5 155.391Zm0 0" />
        </clipPath>
        <clipPath id="R">
            <path
                d="m157.797 38.078-87.64-60.512C24.265-50.214-29.337-3.524 6.41 21.836l36.676 27.777s28.398-64.508 114.71-11.535Zm0 0" />
        </clipPath>
        <clipPath id="S">
            <path d="M39 34h32v17H39Zm0 0" />
        </clipPath>
        <clipPath id="T">
            <path
                d="M7.5 155.39V55.079c0-3.582.348-7.133 1.043-10.644.7-3.516 1.73-6.926 3.098-10.239a54.58 54.58 0 0 1 11.8-17.703A54.485 54.485 0 0 1 41.105 4.664 54.226 54.226 0 0 1 61.938.512h100.074a54.226 54.226 0 0 1 20.832 4.152 54.115 54.115 0 0 1 9.414 5.043 54.454 54.454 0 0 1 8.246 6.785 54.371 54.371 0 0 1 6.773 8.27 54.91 54.91 0 0 1 5.032 9.433 54.759 54.759 0 0 1 3.097 10.239 54.694 54.694 0 0 1 1.043 10.644v100.313a54.632 54.632 0 0 1-9.172 30.316 54.34 54.34 0 0 1-6.773 8.266 54.48 54.48 0 0 1-8.246 6.789 54.38 54.38 0 0 1-30.246 9.195H61.937a54.226 54.226 0 0 1-20.832-4.152 54.38 54.38 0 0 1-17.664-11.832 54.549 54.549 0 0 1-14.898-27.938A54.723 54.723 0 0 1 7.5 155.391Zm0 0" />
        </clipPath>
    </defs>
    
    
    
    <path fill="#007850"
        d="M61.938.512h100.074a54.102 54.102 0 0 1 10.62 1.047c1.747.347 3.477.78 5.18 1.3a54.699 54.699 0 0 1 9.864 4.094 54.213 54.213 0 0 1 8.871 5.945 53.892 53.892 0 0 1 3.957 3.594 54.828 54.828 0 0 1 3.59 3.969 54.433 54.433 0 0 1 5.93 8.895 54.707 54.707 0 0 1 2.285 4.84 54.871 54.871 0 0 1 1.796 5.042 54 54 0 0 1 2.083 10.492 54.28 54.28 0 0 1 .261 5.348v100.313c0 1.785-.086 3.57-.262 5.347a53.923 53.923 0 0 1-2.082 10.492 54.386 54.386 0 0 1-4.082 9.883 55.704 55.704 0 0 1-2.746 4.594 56.07 56.07 0 0 1-3.183 4.3 54.768 54.768 0 0 1-3.59 3.966 53.078 53.078 0 0 1-3.957 3.597 54.96 54.96 0 0 1-4.29 3.192 55.58 55.58 0 0 1-4.581 2.754 55.122 55.122 0 0 1-4.832 2.289 53.543 53.543 0 0 1-5.031 1.8c-1.704.52-3.434.954-5.18 1.305a54.102 54.102 0 0 1-10.621 1.047H61.937a54.102 54.102 0 0 1-15.804-2.352 53.47 53.47 0 0 1-5.028-1.8 55.122 55.122 0 0 1-4.832-2.29 55.58 55.58 0 0 1-4.582-2.753 54.96 54.96 0 0 1-8.25-6.79 55.64 55.64 0 0 1-3.586-3.964 55.055 55.055 0 0 1-3.183-4.301 55.704 55.704 0 0 1-2.746-4.594 54.386 54.386 0 0 1-4.082-9.883 54 54 0 0 1-2.082-10.492 54.34 54.34 0 0 1-.262-5.347V55.078c0-1.789.086-3.57.262-5.348a54 54 0 0 1 2.082-10.492 54.871 54.871 0 0 1 1.797-5.043 54.707 54.707 0 0 1 11.8-17.703 54.763 54.763 0 0 1 3.961-3.594 53.986 53.986 0 0 1 4.29-3.191 54.02 54.02 0 0 1 9.414-5.043 54.624 54.624 0 0 1 5.027-1.805 53.772 53.772 0 0 1 5.183-1.3A54.102 54.102 0 0 1 61.937.512Zm0 0" />
    
    <g clip-path="url(#c)">
        <g clip-path="url(#d)">
            <path fill="#00b574"
                d="M88.293 195.922c.246 20.176 10.75 73.48 58.879 73.48 36.008 0 48.754-38.054 48.754-38.054s-15.13-29.153-7.637-76.325c3.844-24.195 11.828-47.515 20.746-71.058C234.211 21.207 80.371-44.801 38.207 60.102c-37.219 92.593 19.75 139.132 50.082 135.82Zm0 0" />
        </g>
    </g>
    <g clip-path="url(#e)">
        <g clip-path="url(#f)">
            <g clip-path="url(#g)">
                <path fill="#333c4b" fill-opacity=".25"
                    d="M88.293 195.922c24.762-3.145 35.758-18.688 35.758-18.688s-5.621 22.274-34.758 34c-1.219-7.586-1-15.316-1-15.316Zm0 0" />
            </g>
        </g>
    </g>
    <g clip-path="url(#h)">
        <g clip-path="url(#i)">
            <g clip-path="url(#j)">
                <path fill="#333c4b" fill-opacity=".25"
                    d="M204.676 76.75c-21.66 43.414-37.719 120.102-12.887 163.57l4.93-8.894c-11.926-22.215-10.29-58.86-10.29-58.86 1.727-30.625 13.419-64.09 23.329-90.543-1.594-1.468-3.285-3.207-5.082-5.273Zm0 0" />
            </g>
        </g>
    </g>
    <g clip-path="url(#k)">
        <g clip-path="url(#l)">
            <g clip-path="url(#m)">
                <path fill="#333c4b" fill-opacity=".25"
                    d="M47.543 40.988c4.715-5.629 15.094-19.215 37.973-23.718 35.09-7.27 60.023 11.894 60.023 11.894 0-.07-58.144-22.195-97.996 11.824Zm0 0" />
            </g>
        </g>
    </g>
    <g clip-path="url(#n)">
        <g clip-path="url(#o)">
            <path fill="#333c4b"
                d="M159.547 61.465c2.023 2.976-1.098 6.793-3.633 4.457-7.281-6.711-12.094-11.828-25.644-16-8.852-2.727-5.497-12.703 3.308-10.637 10.762 2.524 18.563 9.211 25.969 22.184-.094.02-.246.031 0 0Zm0 0" />
        </g>
    </g>
    <g clip-path="url(#p)">
        <g clip-path="url(#q)">
            <path fill="#333c4b"
                d="M85.496 44.098c-1.664 26.8-27.383 55.789-28.676 57.906-9.78 73.523 27.985 93.914 27.985 93.914S40.985 176.402 51.02 101c1.445-2.738 22.808-26.266 34.3-57.094-.023.043-.043.082.176.188Zm0 0" />
        </g>
    </g>
    <g clip-path="url(#r)">
        <g clip-path="url(#s)">
            <path fill="#333c4b"
                d="M31.313 139.227c9.375 4.14 47.285 22.242 83.148-5.243 7.45-5.71 10.875.953 6.152 4.57-44.437 34.063-82.883 9.274-89.597.473.02.02.023.078.297.2Zm0 0" />
        </g>
    </g>
    <g clip-path="url(#t)">
        <g clip-path="url(#u)">
            <path fill="#333c4b"
                d="M128.04 147.262c18.651-17.489 4.437-43.38-22.821-18.992 16.914-9.079 34.86-4.985 22.82 18.992Zm0 0" />
        </g>
    </g>
    <g clip-path="url(#v)">
        <g clip-path="url(#w)">
            <path fill="#fafafa"
                d="m146.43 95.48-53.293-6.652s6.742-30.457 31.828-27.105C153.344 65.52 146.43 95.48 146.43 95.48Zm0 0" />
        </g>
    </g>
    <g clip-path="url(#x)">
        <g clip-path="url(#y)">
            <path fill="#fafafa"
                d="M60.266 84.176 31.09 80.64c1.672-5.094 3.46-13.098 7.504-21.485 30.386-11.093 21.672 25.02 21.672 25.02Zm0 0" />
        </g>
    </g>
    <g clip-path="url(#z)">
        <g clip-path="url(#A)">
            <g clip-path="url(#B)">
                <path fill="#333c4b"
                    d="M60.266 84.176s3.214-14.75-.633-20.574c-14.54.046-18.903 19.64-18.903 19.64Zm0 0" />
            </g>
        </g>
    </g>
    <g clip-path="url(#C)">
        <g clip-path="url(#D)">
            <path fill="#333c4b"
                d="M146.66 95.48s3.332-17.785-6.262-26.773c-10.453-1.394-24.21 8.008-26.175 22.754Zm0 0" />
        </g>
    </g>
    <g clip-path="url(#E)">
        <g clip-path="url(#F)">
            <path fill="#333c4b"
                d="M75.691 110.656s-.609-2.933-8.52-3.988c-4.433-.594-4.343-8.14 2.114-7.277 4.305.578 8.121 8.414 6.406 11.265Zm0 0" />
        </g>
    </g>
    <g clip-path="url(#G)">
        <g clip-path="url(#H)">
            <path fill="#333c4b"
                d="M34.55 103.445c.048-3.554 3.106-8.074 8.56-8.004 3.855.047 3.535 5.758-.153 5.418-4.629-.43-8.406 2.586-8.406 2.586Zm0 0" />
        </g>
    </g>
    <g clip-path="url(#I)">
        <g clip-path="url(#J)">
            <path fill="#9fe4ff"
                d="M208.742 86.43c7.32-10.614 33.988-70.805-20.898-105.528C101.594-73.66 46.309 24.195 50.883 36.777c63.34-61.148 142.746 30.817 157.762 49.953.062-.316.12-.636.097-.296Zm0 0" />
        </g>
    </g>
    <g clip-path="url(#K)">
        <g clip-path="url(#L)">
            <g clip-path="url(#M)">
                <path fill="#333c4b" fill-opacity=".25"
                    d="M185.023 62.121c8.426 7.758 20.125 21.563 23.18 25.555C233.687 43.93 223.098-1.5 182.723-22.18c20.902 16.871 21.617 56.211 2.3 84.301Zm0 0" />
            </g>
        </g>
    </g>
    <g clip-path="url(#N)">
        <g clip-path="url(#O)">
            <path fill="#f75b2a"
                d="m157.797 38.078-87.64-60.512C24.265-50.214-29.337-3.524 6.41 21.836l36.676 27.777s28.398-64.508 114.71-11.535Zm0 0" />
        </g>
    </g>
    <g clip-path="url(#P)">
        <g clip-path="url(#Q)">
            <g clip-path="url(#R)">
                <path fill="#333c4b" fill-opacity=".25"
                    d="m146.203 31.766-78.5-54.2C40.207-38.184 6.164-26.227-3.047-7.3 12.5-23.12 44.723-.633 68.863 23.566c18.043-8.148 40.742-11.218 77.34 8.204Zm0 0" />
            </g>
        </g>
    </g>
    <g clip-path="url(#S)">
        <g clip-path="url(#T)">
            <path fill="#333c4b"
                d="M42.75 49.895c-3.668 2.078-4.492-.84-2.715-3.18 9.16-12.055 22.367-12.309 25.871-12.445 5.489-.211 7.028 5.804 1.973 8.027-7.473 3.285-8.75-1.707-25.133 7.598Zm0 0" />
        </g>
    </g>
</svg>